<svg xmlns="http://www.w3.org/2000/svg" viewBox="0 0 58.34 18"><path d="M28.48,17H27.14V15H21.8v2H20.45l-.05-3.12h.65a3.21,3.21,0,0,0,.78-1.37,9.07,9.07,0,0,0,.37-2l.21-3.6h5.12v7h1Zm-5.85-3.13h3.48V8H23.74l-.14,2.29A7.25,7.25,0,0,1,22.63,13.85Zm9.5,1.23a2.76,2.76,0,0,1-2.08-.81,2.91,2.91,0,0,1-.8-2.16V12a3.67,3.67,0,0,1,.35-1.62,2.62,2.62,0,0,1,1-1.1,2.52,2.52,0,0,1,1.4-.4,2.36,2.36,0,0,1,1.9.78,3.34,3.34,0,0,1,.67,2.23v.54H30.61a1.79,1.79,0,0,0,.5,1.18,1.52,1.52,0,0,0,1.1.44,1.81,1.81,0,0,0,1.51-.76l.73.7a2.41,2.41,0,0,1-1,.84A2.83,2.83,0,0,1,32.13,15.08ZM32,9.92a1.18,1.18,0,0,0-.91.39,1.91,1.91,0,0,0-.43,1.08h2.58v-.1a1.53,1.53,0,0,0-.36-1A1.13,1.13,0,0,0,32,9.92ZM40.72,15H39.36V12.54H37V15H35.66V9H37v2.51h2.34V9h1.36Zm2.89-4.11h1.33a2.89,2.89,0,0,1,1.29.26,1.87,1.87,0,0,1,.84.72,2.07,2.07,0,0,1-.37,2.57A2.63,2.63,0,0,1,45,15H42.26V9h1.35Zm0,1.09v1.94h1.32a1.22,1.22,0,0,0,.79-.24.89.89,0,0,0,.28-.71.94.94,0,0,0-.28-.72A1.11,1.11,0,0,0,45,12H43.61ZM52.46,10H49.84V15H48.49V9h4ZM57,9h1.35v6H57V11l-2.36,4H53.28V9h1.35v4Z" fill="#fff"/><path d="M.3,4.71A1.67,1.67,0,0,1,1.64,4H16.15a1.59,1.59,0,0,1,1.61,1.6V8.88h-1a.86.86,0,0,0-.91.76v2.78a.85.85,0,0,0,.91.76h1v3.24A1.53,1.53,0,0,1,16.2,18c-7.64,0-8.48,0-14.57,0A1.67,1.67,0,0,1,0,16.35V5.66a1.6,1.6,0,0,1,.3-1m7,2.15A3.81,3.81,0,0,0,3.5,10.91a3.77,3.77,0,1,0,7.53,0A3.75,3.75,0,0,0,7.28,6.86Zm0,1.35a2.49,2.49,0,0,0-2.42,2.7A2.48,2.48,0,0,0,7.26,13.6a2.48,2.48,0,0,0,2.42-2.69A2.47,2.47,0,0,0,7.26,8.21Zm5,5.11v1.35h1.35V13.32Zm1.48-6.19H12.1l.27,5.64h1.08ZM17,9.42h.52A.56.56,0,0,1,18,10v2.08a.57.57,0,0,1-.55.57H17a.56.56,0,0,1-.55-.57V10A.57.57,0,0,1,17,9.42ZM13.78.05l-10.22,3c-.06,0-.06,0-.06.07s0,.11.06.11H15.2v-2a1.28,1.28,0,0,0-.43-1A1,1,0,0,0,13.78.05Z" fill="#f0047f"/></svg>