<svg xmlns="http://www.w3.org/2000/svg" viewBox="0 0 58.71 18"><path d="M20.68,17.74,23.65.3h4.76l-3,17.44Zm22-17A12.37,12.37,0,0,0,38.41,0c-4.69,0-8,2.37-8,5.75,0,2.51,2.36,3.91,4.16,4.74S37,11.89,37,12.66c0,1.16-1.48,1.7-2.85,1.7a10,10,0,0,1-4.47-.92l-.61-.27-.67,3.9a14.93,14.93,0,0,0,5.3.93c5,0,8.24-2.34,8.27-6,0-2-1.24-3.49-4-4.74C36.33,6.5,35.32,6,35.33,5.14s.86-1.5,2.72-1.5a8.89,8.89,0,0,1,3.56.67l.43.2L42.68.73M54.87.32H51.19A2.37,2.37,0,0,0,48.7,1.76l-7.06,16h5s.81-2.15,1-2.62h6.08c.15.61.58,2.61.58,2.61h4.41L54.86.32M49,11.56l1.89-4.88c0,.05.39-1,.63-1.66l.32,1.5,1.11,5ZM16.7.32,12,12.21l-.49-2.42A13.6,13.6,0,0,0,5,2.48L9.22,17.73h5L21.73.32h-5" fill="#00249f"/><path d="M7.73.31H.06L0,.67C6,2.11,9.91,5.6,11.55,9.79l-1.67-8A2,2,0,0,0,7.73.31" fill="#ffa000"/></svg>