<svg xmlns="http://www.w3.org/2000/svg" viewBox="0 0 26.48 18"><path d="M20.12,1.94l-6.27,9.3H26.4Z" fill="#fcfcfc"/><path d="M20.12,2.26l5.95,8.82H14.17l6-8.82m0-.37-6.35,9.38H26.46Z" fill="#0e528f"/><path d="M21.34,4.63l-4.16,6.16H25.5Z" fill="#0e528f"/><path d="M13.22.07,5.69,11.24H20.75Z" fill="#fcfcfc"/><path d="M13.22.38l7.22,10.7H6L13.22.38m0-.38L5.6,11.27H20.83Z" fill="#0e528f"/><path d="M14.89,3.4l-5,7.39h10Z" fill="#0e528f"/><path d="M6.35,1.94.07,11.24H12.61Z" fill="#fcfcfc"/><path d="M6.35,2.26l5.94,8.82H.39l6-8.82m0-.37L0,11.29H12.68Z" fill="#0e528f"/><path d="M7.56,4.63,3.41,10.79h8.31Z" fill="#0e528f"/><path d="M.06,17.64V16.46a1.28,1.28,0,0,0,.44.32,1.49,1.49,0,0,0,.69.16A1.21,1.21,0,0,0,2,16.69,1.24,1.24,0,0,0,2.34,16H.67V15.1H2.32A1,1,0,0,0,2,14.5a1.11,1.11,0,0,0-.78-.25,1.22,1.22,0,0,0-.7.18,1.92,1.92,0,0,0-.44.37V13.54a2.79,2.79,0,0,1,1.29-.34,2,2,0,0,1,1.58.66,2.58,2.58,0,0,1,.61,1.73,2.49,2.49,0,0,1-.67,1.79A2,2,0,0,1,1.3,18a2.42,2.42,0,0,1-.76-.12c-.12-.06-.28-.13-.48-.24Zm4.56-4.35H8v4.6H6.86V14.3H5.74V16a2.27,2.27,0,0,1-.46,1.59,1.36,1.36,0,0,1-1,.39,1.88,1.88,0,0,1-.53-.07V16.77a.71.71,0,0,0,.28.06.62.62,0,0,0,.39-.14,1.22,1.22,0,0,0,.24-.87Zm5.69,0v1.9l1.4-1.9h1.41l-1.75,2.18,1.92,2.42H11.82l-1.51-2v2H9.17v-4.6Zm7,4.6L17,17.11H15.35l-.31.78H13.79l1.74-4.6h1.31l1.72,4.6Zm-1.63-1.7h1.12l-.56-1.48Zm5.65.16h-.76v1.52H19.36v-4.6h1.9a1.63,1.63,0,0,1,1.17.42,1.47,1.47,0,0,1,.42,1.11,1.42,1.42,0,0,1-1.55,1.57Zm-.71-2.1V15.4H21a.71.71,0,0,0,.47-.14.52.52,0,0,0,.15-.43.61.61,0,0,0-.13-.41.7.7,0,0,0-.5-.16h-.38Zm5.89.05h-1v3.59H24.29V14.3h-1v-1h3.16Z" fill="#0e528f"/></svg>